<svg width="256" height="256" viewBox="0 0 256 256" fill="none" xmlns="http://www.w3.org/2000/svg">
  <!-- Background -->
  <rect width="256" height="256" rx="32" fill="#5865F2"/>
  
  <!-- Game symbols -->
  <!-- Dice -->
  <rect x="40" y="40" width="60" height="60" rx="8" fill="white" opacity="0.9"/>
  <circle cx="55" cy="55" r="4" fill="#5865F2"/>
  <circle cx="85" cy="55" r="4" fill="#5865F2"/>
  <circle cx="70" cy="70" r="4" fill="#5865F2"/>
  <circle cx="55" cy="85" r="4" fill="#5865F2"/>
  <circle cx="85" cy="85" r="4" fill="#5865F2"/>
  
  <!-- Playing Card -->
  <rect x="156" y="40" width="60" height="80" rx="6" fill="white" opacity="0.9"/>
  <text x="186" y="75" font-size="32" font-weight="bold" fill="#E74C3C" text-anchor="middle">A</text>
  <text x="186" y="95" font-size="24" fill="#E74C3C" text-anchor="middle">♥</text>
  
  <!-- Roulette Wheel -->
  <circle cx="70" cy="186" r="40" fill="white" opacity="0.9"/>
  <circle cx="70" cy="186" r="30" fill="#2C2F33"/>
  <circle cx="70" cy="186" r="20" fill="#E74C3C"/>
  <circle cx="70" cy="186" r="10" fill="#2C2F33"/>
  <text x="70" y="194" font-size="16" font-weight="bold" fill="white" text-anchor="middle">7</text>
  
  <!-- D20 (Daggerheart) -->
  <polygon points="186,156 216,176 216,196 186,216 156,196 156,176" fill="white" opacity="0.9"/>
  <text x="186" y="194" font-size="24" font-weight="bold" fill="#5865F2" text-anchor="middle">20</text>
  
  <!-- Module Title Text -->
  <text x="128" y="240" font-size="16" font-weight="bold" fill="white" text-anchor="middle">DDT Gaming</text>
</svg>
